<?xml version="1.0" encoding="UTF-8"?>
<svg xmlns="http://www.w3.org/2000/svg" width="205" height="205" viewBox="0 0 205 205">
  <g fill="none" fill-rule="evenodd" transform="translate(0 5)">
    <g fill="#2C2C2C" fill-rule="nonzero" transform="translate(70 72)">
      <path d="M70,0 L0.95890411,0 L0.95890411,15.3125 L25.7705479,15.3125 L25.7705479,17.5 L27.9280822,17.5 L27.9280822,15.3125 L38.7157534,15.3125 L38.7157534,18.59375 C38.7157534,19.25 38.2842466,19.6875 37.6369863,19.6875 L12.8253425,19.6875 C10.9914384,19.6875 9.5890411,21.109375 9.5890411,22.96875 L9.5890411,24.0625 L11.7465753,24.0625 L11.7465753,22.96875 C11.7465753,22.3125 12.1780822,21.875 12.8253425,21.875 L25.7705479,21.875 L25.7705479,22.96875 C25.7705479,24.828125 27.1729452,26.25 29.0068493,26.25 L45.1883562,26.25 L45.1883562,27.34375 C45.1883562,28 44.7568493,28.4375 44.109589,28.4375 L37.6369863,28.4375 C35.8030822,28.4375 34.4006849,29.859375 34.4006849,31.71875 L34.4006849,32.8125 L23.6130137,32.8125 L23.6130137,29.53125 C23.6130137,27.671875 22.2106164,26.25 20.3767123,26.25 L0.95890411,26.25 L0.95890411,28.4375 L9.5890411,28.4375 L9.5890411,32.8125 L0.95890411,32.8125 L0.95890411,70 L70,70 L70,32.8125 L54.8972603,32.8125 L54.8972603,27.34375 C54.8972603,25.484375 53.494863,24.0625 51.6609589,24.0625 L29.0068493,24.0625 C28.359589,24.0625 27.9280822,23.625 27.9280822,22.96875 L27.9280822,21.875 L37.6369863,21.875 C39.4708904,21.875 40.8732877,20.453125 40.8732877,18.59375 L40.8732877,15.3125 L45.1883562,15.3125 L45.1883562,21.875 L47.3458904,21.875 L47.3458904,15.3125 L70,15.3125 L70,0 Z M11.7465753,28.4375 L20.3767123,28.4375 C21.0239726,28.4375 21.4554795,28.875 21.4554795,29.53125 L21.4554795,32.8125 L11.7465753,32.8125 L11.7465753,28.4375 Z M67.8424658,35 L67.8424658,67.8125 L3.11643836,67.8125 L3.11643836,35 L9.5890411,35 L9.5890411,52.5 C9.5890411,54.359375 10.9914384,55.78125 12.8253425,55.78125 L20.7003425,55.78125 C21.0239726,56.4375 21.7791096,56.875 22.5342466,56.875 C23.7208904,56.875 24.6917808,55.890625 24.6917808,54.6875 C24.6917808,53.484375 23.7208904,52.5 22.5342466,52.5 C21.7791096,52.5 21.0239726,52.9375 20.7003425,53.59375 L12.8253425,53.59375 C12.1780822,53.59375 11.7465753,53.15625 11.7465753,52.5 L11.7465753,35 L21.4554795,35 L21.4554795,39.703125 C20.8082192,40.03125 20.3767123,40.796875 20.3767123,41.5625 C20.3767123,42.765625 21.3476027,43.75 22.5342466,43.75 C23.7208904,43.75 24.6917808,42.765625 24.6917808,41.5625 C24.6917808,40.796875 24.260274,40.03125 23.6130137,39.703125 L23.6130137,35 L34.4006849,35 L34.4006849,39.703125 C33.7534247,40.03125 33.3219178,40.796875 33.3219178,41.5625 C33.3219178,42.765625 34.2928082,43.75 35.4794521,43.75 C36.6660959,43.75 37.6369863,42.765625 37.6369863,41.5625 C37.6369863,40.796875 37.2054795,40.03125 36.5582192,39.703125 L36.5582192,35 L52.739726,35 L52.739726,59.0625 C52.739726,59.71875 52.3082192,60.15625 51.6609589,60.15625 L43.7859589,60.15625 C43.4623288,59.5 42.7071918,59.0625 41.9520548,59.0625 C40.765411,59.0625 39.7945205,60.046875 39.7945205,61.25 C39.7945205,62.453125 40.765411,63.4375 41.9520548,63.4375 C42.7071918,63.4375 43.4623288,63 43.7859589,62.34375 L51.6609589,62.34375 C53.494863,62.34375 54.8972603,60.921875 54.8972603,59.0625 L54.8972603,35 L67.8424658,35 Z M52.739726,27.34375 L52.739726,32.8125 L36.5582192,32.8125 L36.5582192,31.71875 C36.5582192,31.0625 36.989726,30.625 37.6369863,30.625 L44.109589,30.625 C45.9434932,30.625 47.3458904,29.203125 47.3458904,27.34375 L47.3458904,26.25 L51.6609589,26.25 C52.3082192,26.25 52.739726,26.6875 52.739726,27.34375 Z M3.11643836,2.1875 L18.2191781,2.1875 L18.2191781,13.125 L3.11643836,13.125 L3.11643836,2.1875 Z M67.8424658,13.125 L47.3458904,13.125 L47.3458904,10.609375 C47.9931507,10.28125 48.4246575,9.515625 48.4246575,8.75 C48.4246575,7.546875 47.4537671,6.5625 46.2671233,6.5625 C45.0804795,6.5625 44.109589,7.546875 44.109589,8.75 C44.109589,9.515625 44.5410959,10.28125 45.1883562,10.609375 L45.1883562,13.125 L40.8732877,13.125 L40.8732877,10.609375 C41.5205479,10.28125 41.9520548,9.515625 41.9520548,8.75 C41.9520548,7.546875 40.9811644,6.5625 39.7945205,6.5625 C38.6078767,6.5625 37.6369863,7.546875 37.6369863,8.75 C37.6369863,9.515625 38.0684932,10.28125 38.7157534,10.609375 L38.7157534,13.125 L27.9280822,13.125 L27.9280822,10.609375 C28.5753425,10.28125 29.0068493,9.515625 29.0068493,8.75 C29.0068493,7.546875 28.0359589,6.5625 26.8493151,6.5625 C25.6626712,6.5625 24.6917808,7.546875 24.6917808,8.75 C24.6917808,9.515625 25.1232877,10.28125 25.7705479,10.609375 L25.7705479,13.125 L20.3767123,13.125 L20.3767123,2.1875 L67.8424658,2.1875 L67.8424658,13.125 Z"></path>
      <circle cx="33.082" cy="9.11" r="2.397"></circle>
      <circle cx="29.247" cy="41.712" r="2.397"></circle>
      <circle cx="41.712" cy="41.712" r="2.397"></circle>
      <circle cx="22.534" cy="48.425" r="2.397"></circle>
      <ellipse cx="16.301" cy="41.712" rx="1.918" ry="2.397"></ellipse>
      <ellipse cx="16.301" cy="48.425" rx="1.918" ry="2.397"></ellipse>
      <circle cx="29.247" cy="48.425" r="2.397"></circle>
      <circle cx="35" cy="48.425" r="2.397"></circle>
      <circle cx="41.712" cy="48.425" r="2.397"></circle>
      <circle cx="29.247" cy="55.137" r="2.397"></circle>
      <circle cx="35" cy="55.137" r="2.397"></circle>
      <circle cx="41.712" cy="55.137" r="2.397"></circle>
      <circle cx="48.425" cy="41.712" r="2.397"></circle>
      <circle cx="48.425" cy="48.425" r="2.397"></circle>
      <circle cx="48.425" cy="55.137" r="2.397"></circle>
      <circle cx="22.534" cy="60.89" r="2.397"></circle>
      <ellipse cx="16.301" cy="60.89" rx="1.918" ry="2.397"></ellipse>
      <circle cx="29.247" cy="60.89" r="2.397"></circle>
      <circle cx="35" cy="60.89" r="2.397"></circle>
      <rect width="2.877" height="6.712" x="56.575" y="4.795"></rect>
      <rect width="2.877" height="6.712" x="51.781" y="4.795"></rect>
      <rect width="4.795" height="4.795" x="4.795" y="3.836"></rect>
      <rect width="2.877" height="2.877" x="63.288" y="3.836"></rect>
      <rect width="2.877" height="2.877" x="63.288" y="8.63"></rect>
      <rect width="2.877" height="2.877" x="13.425" y="3.836"></rect>
      <rect width="2.877" height="2.877" y="20.137"></rect>
      <rect width="2.877" height="2.877" x="58.493" y="23.973"></rect>
      <rect width="2.877" height="2.877" x="63.288" y="23.973"></rect>
      <rect width="2.877" height="2.877" x="4.795" y="63.288"></rect>
      <rect width="2.877" height="2.877" x="4.795" y="58.493"></rect>
      <rect width="2.877" height="2.877" x="4.795" y="37.397"></rect>
      <rect width="2.877" height="2.877" x="63.288" y="63.288"></rect>
      <rect width="8.63" height="4.795" x="57.534" y="39.315"></rect>
      <rect width="2.877" height="2.877" x="63.288" y="46.027"></rect>
      <rect width="2.877" height="2.877" x="63.288" y="49.863"></rect>
      <rect width="2.877" height="2.877" x="63.288" y="54.658"></rect>
      <rect width="2.877" height="2.877" x="58.493" y="58.493"></rect>
      <rect width="2.877" height="2.877" x="58.493" y="49.863"></rect>
      <rect width="2.877" height="2.877" x="58.493" y="54.658"></rect>
    </g>
    <path fill="#C00127" d="M157.015909,17.3307254 C161.300452,20.1131398 165.305518,23.164157 169.023377,26.4473381 L150.250185,55.3316753 C146.794483,51.7814175 142.892681,48.5580269 138.562733,45.7461255 C107.20048,25.3792405 65.252814,34.312634 44.8699979,65.6994183 C24.4871819,97.0862026 33.3877738,139.040841 64.7500265,159.407726 C69.0661438,162.210645 73.5827452,164.458628 78.2160309,166.169519 L59.4430259,195.054189 C54.9544781,192.999748 50.5604523,190.591942 46.2968498,187.823126 C-0.746529084,157.272799 -14.097417,94.340841 16.4768071,47.2606646 C47.0510312,0.180488118 109.972531,-13.2196021 157.015909,17.3307254 Z"></path>
  </g>
</svg>
