<?xml version="1.0" encoding="UTF-8"?>
<svg xmlns="http://www.w3.org/2000/svg" width="160" height="160" viewBox="0 0 160 160">
  <g fill="none" fill-rule="evenodd" transform="translate(13 3)">
    <g fill="#2C2C2C" fill-rule="nonzero" transform="translate(55.034 54.069)">
      <rect width="12.461" height="1.733" x="44.504" y="50.266"></rect>
      <rect width="1.78" height="1.733" x="44.504" y="46.799"></rect>
      <rect width="1.78" height="1.733" x="48.065" y="46.799"></rect>
      <polygon points="1.78 1.733 25.813 1.733 25.813 0 0 0 0 29.466 1.78 29.466"></polygon>
      <path d="M56.9655172,32.9328687 L56.9655172,0 L27.5926724,0 L27.5926724,8.57987894 C25.4564655,9.79319516 24.0323276,12.0464967 24.0323276,14.5597946 L25.8125,14.5597946 C25.8125,12.9998166 26.524569,11.6131695 27.5926724,10.6598496 L27.5926724,21.0597029 L24.6553879,18.1997432 L23.4092672,19.4130594 L28.4827586,24.3529897 L33.55625,19.4130594 L32.3101293,18.1997432 L29.3728448,21.1463683 L29.3728448,9.61986427 C29.9068966,9.44653338 30.5299569,9.35986794 31.1530172,9.35986794 C34.0903017,9.35986794 36.4935345,11.6998349 36.4935345,14.5597946 L36.4935345,15.426449 L37.3836207,15.426449 C40.3209052,15.426449 42.7241379,17.766416 42.7241379,20.7130411 C42.7241379,23.6596662 40.3209052,25.9996332 37.3836207,25.9996332 L18.6918103,25.9996332 C16.2885776,25.9996332 14.2413793,24.006328 14.2413793,21.5796955 C14.2413793,19.1530631 16.199569,17.1597579 18.6918103,17.1597579 L19.5818966,17.1597579 L19.5818966,16.2931034 C19.5818966,14.3864637 21.1840517,12.8264857 23.1422414,12.8264857 L23.1422414,11.0931768 C20.4719828,11.0931768 18.2467672,12.9998166 17.8907328,15.5131145 C14.8644397,15.9464417 12.4612069,18.4597395 12.4612069,21.5796955 C12.4612069,24.9596478 15.2204741,27.732942 18.6918103,27.732942 L37.3836207,27.732942 C41.3,27.732942 44.5043103,24.6129861 44.5043103,20.7130411 C44.5043103,17.1597579 41.7450431,14.1264674 38.1846983,13.7798056 C37.7396552,10.3131878 34.7133621,7.62655906 31.1530172,7.62655906 C30.5299569,7.62655906 29.9068966,7.7132245 29.3728448,7.88655539 L29.3728448,1.73330888 L55.1853448,1.73330888 L55.1853448,31.1995598 L0,31.1995598 L0,39.8661042 L20.7390086,39.8661042 L17.1786638,46.7993397 L14.2413793,46.7993397 L14.2413793,50.2659574 L0,50.2659574 L0,51.9992663 L19.5818966,51.9992663 L19.5818966,50.2659574 L16.0215517,50.2659574 L16.0215517,48.5326486 L40.9439655,48.5326486 L40.9439655,50.2659574 L21.362069,50.2659574 L21.362069,51.9992663 L42.7241379,51.9992663 L42.7241379,46.7993397 L39.7868534,46.7993397 L36.2265086,39.8661042 L56.9655172,39.8661042 L56.9655172,34.6661775 L55.1853448,34.6661775 L55.1853448,38.1327953 L1.78017241,38.1327953 L1.78017241,32.9328687 L56.9655172,32.9328687 Z M37.8286638,46.7993397 L19.1368534,46.7993397 L22.6971983,39.8661042 L34.268319,39.8661042 L37.8286638,46.7993397 Z"></path>
      <rect width="10.681" height="1.733" x="5.341" y="5.2"></rect>
      <rect width="1.78" height="1.733" x="5.341" y="8.667"></rect>
      <rect width="1.78" height="1.733" x="8.901" y="8.667"></rect>
      <rect width="1.78" height="1.733" x="5.341" y="12.133"></rect>
    </g>
    <path fill="#C00127" d="M75.0477048,0.278729299 L75.4938254,27.112539 C59.9396138,28.6936763 45.2412906,37.0216646 36.0912113,51.1115512 C20.0153683,75.8661785 27.1530171,109.032122 52.0335962,125.189759 C55.4848435,127.431025 59.0961996,129.227303 62.7997465,130.59285 L48.0564361,153.410499 C44.445165,151.762833 40.9096927,149.828362 37.4796519,147.600868 C0.158783294,123.364412 -10.54769,73.6154974 13.5660745,36.4835563 C27.756624,14.6320263 50.8435465,2.01945532 75.0477048,0.278729299 Z"></path>
  </g>
</svg>
