<?xml version="1.0" encoding="UTF-8"?>
<svg xmlns="http://www.w3.org/2000/svg" width="160" height="160" viewBox="0 0 160 160">
  <g fill="none" fill-rule="evenodd" transform="translate(13 3)">
    <path fill="#C00127" d="M125.477903,13.1052166 C128.862066,15.3029176 132.026883,17.7113021 134.966298,20.301919 L120.095214,43.2172249 C117.358115,40.4115781 114.269799,37.8633215 110.844397,35.6388395 C85.939806,19.4656088 52.6473583,26.531908 36.4836341,51.4218605 C20.31991,76.311813 27.4057828,109.6001 52.3103741,125.773331 C55.7441607,128.003258 59.3374025,129.791396 63.0232184,131.15194 L48.1508397,154.066261 C44.5746695,152.43065 41.0737535,150.512917 37.6768684,148.306954 C0.319981417,124.047108 -10.3088279,74.114677 13.9367584,36.7797482 C38.1823446,-0.555180591 88.1210161,-11.1546294 125.477903,13.1052166 Z"></path>
    <g fill="#2C2C2C" fill-rule="nonzero" transform="translate(55.41 55.41)">
      <rect width="1.763" height="1.732" x="8.815"></rect>
      <rect width="1.763" height="1.732" x="12.341"></rect>
      <rect width="1.763" height="1.732" x="19.394"></rect>
      <rect width="1.763" height="1.732" x="22.92"></rect>
      <rect width="1.763" height="1.732" x="26.446"></rect>
      <rect width="1.763" height="1.732" x="33.498"></rect>
      <rect width="1.763" height="1.732" x="29.972"></rect>
      <rect width="1.763" height="1.732" x="37.024"></rect>
      <rect width="1.763" height="1.732" x="44.076"></rect>
      <rect width="1.763" height="1.732" x="47.603"></rect>
      <rect width="1.763" height="1.732" x="5.289" y="53.679"></rect>
      <rect width="1.763" height="1.732" x="8.815" y="53.679"></rect>
      <rect width="1.763" height="1.732" x="15.868" y="53.679"></rect>
      <rect width="1.763" height="1.732" x="19.394" y="53.679"></rect>
      <rect width="1.763" height="1.732" x="22.92" y="53.679"></rect>
      <rect width="1.763" height="1.732" x="26.446" y="53.679"></rect>
      <rect width="1.763" height="1.732" x="29.972" y="53.679"></rect>
      <rect width="1.763" height="1.732" x="37.024" y="53.679"></rect>
      <rect width="1.763" height="1.732" x="40.55" y="53.679"></rect>
      <rect width="1.763" height="1.732" x="44.076" y="53.679"></rect>
      <rect width="1.763" height="1.732" x="47.603" y="53.679"></rect>
      <rect width="1.763" height="1.732" x="51.129" y="53.679"></rect>
      <rect width="1.763" height="1.732" x="54.655" y="5.195"></rect>
      <rect width="1.763" height="1.732" x="54.655" y="8.658"></rect>
      <rect width="1.763" height="1.732" x="54.655" y="13.853"></rect>
      <rect width="1.763" height="1.732" x="54.655" y="17.316"></rect>
      <rect width="1.763" height="1.732" x="54.655" y="24.242"></rect>
      <rect width="1.763" height="1.732" x="54.655" y="32.9"></rect>
      <rect width="1.763" height="1.732" x="54.655" y="29.437"></rect>
      <rect width="1.763" height="1.732" x="54.655" y="36.363"></rect>
      <rect width="1.763" height="1.732" x="54.655" y="39.826"></rect>
      <rect width="1.763" height="1.732" x="54.655" y="20.779"></rect>
      <rect width="1.763" height="1.732" x="54.655" y="45.021"></rect>
      <rect width="1.763" height="1.732" x="54.655" y="48.484"></rect>
      <path d="M37.0242537,15.5841884 L15.8675373,15.5841884 L15.8675373,36.3631063 L19.3936567,36.3631063 L19.3936567,39.8262593 L40.5503731,39.8262593 L40.5503731,19.0473414 L37.0242537,19.0473414 L37.0242537,15.5841884 Z M35.261194,19.0473414 L20.6277985,19.0473414 L18.8647388,17.3157649 L35.261194,17.3157649 L35.261194,19.0473414 Z M21.1567164,36.3631063 L33.4981343,36.3631063 L33.4981343,34.6315299 L21.1567164,34.6315299 L21.1567164,22.5104944 L19.3936567,22.5104944 L19.3936567,34.6315299 L17.630597,34.6315299 L17.630597,18.5278685 L19.9225746,20.7789179 L35.261194,20.7789179 L35.261194,35.8436334 L37.5531716,38.0946828 L21.1567164,38.0946828 L21.1567164,36.3631063 Z M38.7873134,20.7789179 L38.7873134,36.8825793 L37.0242537,35.1510028 L37.0242537,20.7789179 L38.7873134,20.7789179 Z"></path>
      <path d="M3.5261194,51.9472948 L52.891791,51.9472948 L52.891791,3.46315299 L3.5261194,3.46315299 L3.5261194,51.9472948 Z M5.2891791,5.19472948 L51.1287313,5.19472948 L51.1287313,50.2157183 L5.2891791,50.2157183 L5.2891791,5.19472948 Z"></path>
      <rect width="1.763" height="1.732" y="6.926"></rect>
      <rect width="1.763" height="1.732" y="3.463"></rect>
      <rect width="1.763" height="1.732" y="13.853"></rect>
      <rect width="1.763" height="1.732" y="17.316"></rect>
      <rect width="1.763" height="1.732" y="24.242"></rect>
      <rect width="1.763" height="1.732" y="27.705"></rect>
      <rect width="1.763" height="1.732" y="31.168"></rect>
      <rect width="1.763" height="1.732" y="34.632"></rect>
      <rect width="1.763" height="1.732" y="38.095"></rect>
      <rect width="1.763" height="1.732" y="41.558"></rect>
      <rect width="1.763" height="1.732" y="45.021"></rect>
      <rect width="1.763" height="1.732" y="48.484"></rect>
      <path d="M7.05223881,48.4841418 L44.4291045,48.4841418 L49.3656716,43.6357276 L49.3656716,6.92630597 L7.05223881,6.92630597 L7.05223881,48.4841418 Z M8.81529851,8.65788246 L47.6026119,8.65788246 L47.6026119,42.943097 L43.7238806,46.7525653 L8.81529851,46.7525653 L8.81529851,8.65788246 Z"></path>
      <rect width="1.763" height="1.732" x="47.603" y="46.753"></rect>
      <rect width="1.763" height="1.732" x="38.787" y="15.584"></rect>
      <rect width="1.763" height="1.732" x="15.868" y="38.095"></rect>
    </g>
  </g>
</svg>
