<?xml version="1.0" encoding="UTF-8"?>
<svg xmlns="http://www.w3.org/2000/svg" width="160" height="160" viewBox="0 0 160 160">
  <g fill="none" fill-rule="evenodd" transform="translate(13 24)">
    <path fill="#C00127" d="M25.6775083,0.682746453 L49.6253782,15.5395045 C44.4333219,19.3335879 39.827209,24.1242375 36.1118603,29.8453728 C19.8572095,54.8753401 26.8076471,88.2370471 51.636097,104.360831 C55.0185461,106.557419 58.5583041,108.320763 62.1908318,109.664855 L47.1405992,132.653211 C43.6510914,131.049408 40.2353149,129.174027 36.9202727,127.021213 C-0.322402325,102.835537 -10.7480586,52.792977 13.6339175,15.2480261 C17.1538359,9.82782709 21.206767,4.96440917 25.6775083,0.682746453 Z"></path>
    <g fill="#2C2C2C" fill-rule="nonzero" transform="translate(56 33)">
      <path d="M9.625,24.0625 C13.9125,24.0625 17.5875,21.2265625 18.8125,17.4453125 C20.825,21.3984375 24.9375,24.0625 29.75,24.0625 C36.4875,24.0625 42,18.6484375 42,12.03125 C42,5.4140625 36.4875,0 29.75,0 C23.8875,0 18.9,4.125 17.7625,9.5390625 C16.0125,6.9609375 13.0375,5.15625 9.625,5.15625 C4.2875,5.15625 0,9.3671875 0,14.609375 C0,19.8515625 4.2875,24.0625 9.625,24.0625 Z M29.75,1.71875 C35.525,1.71875 40.25,6.359375 40.25,12.03125 C40.25,17.703125 35.525,22.34375 29.75,22.34375 C23.975,22.34375 19.25,17.703125 19.25,12.03125 C19.25,6.359375 23.975,1.71875 29.75,1.71875 Z M9.625,6.875 C14,6.875 17.5,10.3125 17.5,14.609375 C17.5,18.90625 14,22.34375 9.625,22.34375 C5.25,22.34375 1.75,18.90625 1.75,14.609375 C1.75,10.3125 5.25,6.875 9.625,6.875 Z"></path>
      <path d="M9.625 20.625C13.0375 20.625 15.75 17.9609375 15.75 14.609375 15.75 11.2578125 13.0375 8.59375 9.625 8.59375 6.2125 8.59375 3.5 11.2578125 3.5 14.609375 3.5 17.9609375 6.2125 20.625 9.625 20.625zM9.625 10.3125C12.075 10.3125 14 12.203125 14 14.609375 14 17.015625 12.075 18.90625 9.625 18.90625 7.175 18.90625 5.25 17.015625 5.25 14.609375 5.25 12.203125 7.175 10.3125 9.625 10.3125zM29.75 20.625C34.5625 20.625 38.5 16.7578125 38.5 12.03125 38.5 7.3046875 34.5625 3.4375 29.75 3.4375 24.9375 3.4375 21 7.3046875 21 12.03125 21 16.7578125 24.9375 20.625 29.75 20.625zM29.75 5.15625C33.6 5.15625 36.75 8.25 36.75 12.03125 36.75 15.8125 33.6 18.90625 29.75 18.90625 25.9 18.90625 22.75 15.8125 22.75 12.03125 22.75 8.25 25.9 5.15625 29.75 5.15625z"></path>
      <path d="M51.275,13.75 L42.525,22.34375 L38.5,22.34375 L38.5,35.234375 L38.5,36.09375 L38.5,39.53125 L28,39.53125 L28,41.25 L31.5,41.25 L31.5,42.96875 L10.5,42.96875 L10.5,41.25 L21,41.25 C23.8875,41.25 26.25,38.9296875 26.25,36.09375 C26.25,33.2578125 23.8875,30.9375 21,30.9375 C18.1125,30.9375 15.75,33.2578125 15.75,36.09375 C15.75,37.3828125 16.275,38.5859375 17.0625,39.53125 L3.5,39.53125 L3.5,32.65625 L5.25,32.65625 L5.25,24.0625 L0,24.0625 L0,32.65625 L1.75,32.65625 L1.75,41.25 L8.75,41.25 L8.75,44.6875 L16.625,44.6875 L16.625,46.40625 L13.65,46.40625 L11.375,48.640625 L11.375,51.5625 L13.125,51.5625 L13.125,55 L14.875,55 L14.875,51.5625 L20.125,51.5625 L20.125,55 L21.875,55 L21.875,51.5625 L27.125,51.5625 L27.125,55 L28.875,55 L28.875,51.5625 L30.625,51.5625 L30.625,48.640625 L28.35,46.40625 L25.375,46.40625 L25.375,44.6875 L33.25,44.6875 L33.25,41.25 L40.25,41.25 L40.25,36.09375 L42.525,36.09375 L51.275,44.6875 L56,44.6875 L56,13.75 L51.275,13.75 Z M1.75,25.78125 L3.5,25.78125 L3.5,30.9375 L1.75,30.9375 L1.75,25.78125 Z M17.5,36.09375 C17.5,34.203125 19.075,32.65625 21,32.65625 C22.925,32.65625 24.5,34.203125 24.5,36.09375 C24.5,37.984375 22.925,39.53125 21,39.53125 C19.075,39.53125 17.5,37.984375 17.5,36.09375 Z M13.125,49.84375 L13.125,49.328125 L14.35,48.125 L20.125,48.125 L20.125,49.84375 L13.125,49.84375 Z M28.875,49.328125 L28.875,49.84375 L21.875,49.84375 L21.875,48.125 L27.65,48.125 L28.875,49.328125 Z M23.625,46.40625 L18.375,46.40625 L18.375,44.6875 L23.625,44.6875 L23.625,46.40625 Z M43.75,23.546875 L50.75,16.671875 L50.75,41.765625 L43.75,34.890625 L43.75,23.546875 Z M42,34.375 L40.25,34.375 L40.25,24.0625 L42,24.0625 L42,34.375 Z M54.25,42.96875 L52.5,42.96875 L52.5,15.46875 L54.25,15.46875 L54.25,42.96875 Z"></path>
      <rect width="1.75" height="1.719" x="31.5" y="36.094"></rect>
      <path d="M33.25,30.078125 C33.25,27.671875 31.325,25.78125 28.875,25.78125 L7,25.78125 L7,27.5 L28.875,27.5 C30.3625,27.5 31.5,28.6171875 31.5,30.078125 L31.5,34.375 L33.25,34.375 L33.25,30.078125 Z"></path>
      <rect width="1.75" height="1.719" x="7" y="29.219"></rect>
      <rect width="1.75" height="1.719" x="10.5" y="29.219"></rect>
      <rect width="1.75" height="1.719" x="14" y="29.219"></rect>
    </g>
  </g>
</svg>
