<?xml version="1.0" encoding="UTF-8"?>
<svg xmlns="http://www.w3.org/2000/svg" width="39" height="31" viewBox="0 0 39 31">
  <path fill="none" stroke="#000" stroke-linecap="round" stroke-linejoin="round" d="M37.0526316,0.699655969 C35.4398063,1.81844618 33.6540764,2.67414119 31.7642105,3.23378814 C29.6865003,0.88439552 26.3383073,0.0605152258 23.3803477,1.17079492 C20.4223881,2.28107462 18.4838741,5.08933747 18.5263158,8.20267475 L18.5263158,9.85897028 C12.5148039,10.0122644 6.82446368,7.19559821 3.36842105,2.3559515 C3.36842105,2.3559515 -3.36842105,17.2626113 11.7894737,23.8877935 C8.32088853,26.2032388 4.18889585,27.3642408 7.10542736e-14,27.2003845 C15.1578947,35.4818622 33.6842105,27.2003845 33.6842105,8.15298588 C33.6826596,7.69163078 33.6375537,7.23141377 33.5494737,6.77826058 C35.2683842,5.11118767 36.4813935,3.00639994 37.0526316,0.699655969 Z" transform="translate(.812 -.043)"></path>
</svg>
