<?xml version="1.0" encoding="UTF-8"?>
<svg xmlns="http://www.w3.org/2000/svg" width="46" height="32" viewBox="0 0 46 32">
  <g fill="none" fill-rule="evenodd" stroke="#000" stroke-linecap="round" stroke-linejoin="round" transform="translate(.244 1)">
    <path d="M44.08,4.7597793 C43.5964216,2.85978433 42.1163965,1.35927468 40.2,0.826077398 C36.76,3.57047725e-13 23,3.57047725e-13 23,3.57047725e-13 C23,3.57047725e-13 9.24,3.57047725e-13 5.8,0.904751436 C3.88360351,1.43794871 2.40357843,2.93845837 1.92,4.83845333 C1.29042911,8.27170084 0.982471854,11.7545105 1,15.2430949 C0.977558588,18.757946 1.28553538,22.2673132 1.92,25.7264104 C2.45270061,27.5659202 3.92406771,28.9979828 5.8,29.5027642 C9.24,30.4075157 23,30.4075157 23,30.4075157 C23,30.4075157 36.76,30.4075157 40.2,29.5027642 C42.1163965,28.9695669 43.5964216,27.4690573 44.08,25.5690623 C44.7047143,22.1616671 45.0126522,18.7054099 45,15.2430949 C45.0224414,11.7282437 44.7144646,8.21887651 44.08,4.7597793 Z"></path>
    <polygon points="18.5 21.675 30 15.243 18.5 8.811"></polygon>
  </g>
</svg>
