<?xml version="1.0" encoding="UTF-8"?>
<svg xmlns="http://www.w3.org/2000/svg" width="31" height="33" viewBox="0 0 31 33">
  <path fill="none" stroke="#000" stroke-linecap="round" stroke-linejoin="round" d="M10.6530748,26.9796844 C3.04373566,29.2246498 3.04373566,23.2380754 -6.39488462e-14,22.4897536 M21.3061496,31.4696152 L21.3061496,25.6776045 C21.4216337,24.233938 20.9005584,22.8111026 19.8755939,21.7713647 C24.6542588,21.2475394 29.6764227,19.4665336 29.6764227,11.2948595 C29.6760321,9.20528619 28.858711,7.1958503 27.3936209,5.68244608 C28.0873733,3.85430572 28.0383207,1.83360164 27.2566528,0.0400997322 C27.2566528,0.0400997322 25.4608488,-0.483725525 21.3061496,2.25513225 C17.8180424,1.32544979 14.1411821,1.32544979 10.6530748,2.25513225 C6.49837563,-0.483725525 4.7025716,0.0400997322 4.7025716,0.0400997322 C3.92090375,1.83360164 3.87185111,3.85430572 4.56560349,5.68244608 C3.08958514,7.20707643 2.27142221,9.23467415 2.28268461,11.3397589 C2.28268461,19.4515671 7.30496558,21.232573 12.0836306,21.816264 C11.0710095,22.8453016 10.5509139,24.2491379 10.6530748,25.6776045 L10.6530748,31.4696152" transform="translate(0 1)"></path>
</svg>
