<svg xmlns="http://www.w3.org/2000/svg" width="83" height="83" viewBox="0 0 83 83">
  <g fill="none" fill-rule="evenodd">
    <rect width="83" height="83" fill="#000"/>
    <g transform="translate(3 2.857)">
      <path fill="#FFF" fill-rule="nonzero" d="M66.8892857,34.8169643 L66.7660714,33.8830357 L65.8401786,34.0553571 C65.6589286,34.0892857 65.5008929,34.10625 65.3571429,34.10625 C63.8803571,34.10625 62.6785714,32.9044643 62.6785714,31.4276786 C62.6785714,30.3 63.4017857,29.2892857 64.4785714,28.9133929 L65.3660714,28.6017857 L65.0089286,27.7303571 C64.0401786,25.3705357 62.7553571,23.1473214 61.1883929,21.1205357 L60.6232143,20.3901786 L59.9125,20.9785714 C59.5660714,21.2642857 58.9910714,21.60625 58.2151786,21.60625 C56.7383929,21.60625 55.5366071,20.4044643 55.5366071,18.9276786 C55.5366071,18.1508929 55.8785714,17.5758929 56.1642857,17.2303571 L56.7526786,16.51875 L56.0223214,15.9544643 C53.9946429,14.3875 51.7714286,13.1026786 49.4125,12.1339286 L48.5410714,11.7767857 L48.2294643,12.6651786 C47.8526786,13.7401786 46.8428571,14.4633929 45.7142857,14.4633929 C44.2375,14.4633929 43.0357143,13.2616071 43.0357143,11.7848214 C43.0357143,11.6410714 43.0526786,11.4830357 43.0866071,11.3017857 L43.2589286,10.3758929 L42.325,10.2526786 C39.7714286,9.91607143 37.3714286,9.91607143 34.8178571,10.2526786 L33.8839286,10.3758929 L34.0571429,11.3017857 C34.0901786,11.4830357 34.1071429,11.6410714 34.1071429,11.7848214 C34.1071429,13.2616071 32.9053571,14.4633929 31.4285714,14.4633929 C30.3008929,14.4633929 29.2901786,13.7401786 28.9133929,12.6642857 L28.6026786,11.7758929 L27.73125,12.1330357 C25.3723214,13.1017857 23.1482143,14.3866071 21.1214286,15.9535714 L20.3910714,16.5178571 L20.9803571,17.2294643 C21.2660714,17.5758929 21.6071429,18.1508929 21.6071429,18.9276786 C21.6071429,20.4044643 20.4053571,21.60625 18.9285714,21.60625 C18.1517857,21.60625 17.5767857,21.2642857 17.23125,20.9785714 L16.5205357,20.3901786 L15.9553571,21.1205357 C14.3892857,23.1482143 13.1035714,25.3714286 12.1348214,27.7303571 L11.7767857,28.6017857 L12.6651786,28.9133929 C13.7410714,29.2892857 14.4642857,30.3 14.4642857,31.4276786 C14.4642857,32.9044643 13.2625,34.10625 11.7857143,34.10625 C11.6419643,34.10625 11.4839286,34.0892857 11.3026786,34.0553571 L10.3767857,33.8830357 L10.2535714,34.8169643 C10.0857143,36.0946429 10,37.3571429 10,38.5705357 C10,39.7839286 10.0857143,41.0464286 10.2535714,42.3241071 L10.3767857,43.2580357 L11.3026786,43.0857143 C11.4839286,43.0517857 11.6419643,43.0348214 11.7857143,43.0348214 C13.2625,43.0348214 14.4642857,44.2366071 14.4642857,45.7133929 C14.4642857,46.8410714 13.7410714,47.8517857 12.6651786,48.2276786 L11.7767857,48.5392857 L12.1348214,49.4107143 C13.1035714,51.7705357 14.3883929,53.99375 15.9553571,56.0205357 L16.5205357,56.7508929 L17.23125,56.1625 C17.5767857,55.8767857 18.1526786,55.5348214 18.9285714,55.5348214 C20.4053571,55.5348214 21.6071429,56.7366071 21.6071429,58.2133929 C21.6071429,58.9901786 21.2660714,59.5651786 20.9794643,59.9107143 L20.3901786,60.6223214 L21.1205357,61.1866071 C23.1482143,62.7535714 25.3714286,64.0383929 27.7303571,65.0071429 L28.6017857,65.3642857 L28.9125,64.4758929 C29.2892857,63.4 30.3,62.6767857 31.4276786,62.6767857 C32.9044643,62.6767857 34.10625,63.8785714 34.10625,65.3553571 C34.10625,65.4991071 34.0892857,65.6571429 34.05625,65.8383929 L33.8830357,66.7642857 L34.8169643,66.8875 C36.09375,67.0553571 37.3571429,67.1410714 38.5705357,67.1410714 C39.7839286,67.1410714 41.0464286,67.0553571 42.3241071,66.8875 L43.2580357,66.7642857 L43.0857143,65.8383929 C43.0526786,65.6580357 43.0357143,65.5 43.0357143,65.35625 C43.0357143,63.8794643 44.2375,62.6776786 45.7142857,62.6776786 C46.8428571,62.6776786 47.8526786,63.4008929 48.2285714,64.4767857 L48.5401786,65.3651786 L49.4116071,65.0080357 C51.7714286,64.0392857 53.9946429,62.7544643 56.0214286,61.1875 L56.7517857,60.6232143 L56.1633929,59.9107143 C55.8776786,59.5651786 55.5357143,58.9901786 55.5357143,58.2133929 C55.5357143,56.7366071 56.7375,55.5348214 58.2142857,55.5348214 C58.9901786,55.5348214 59.5660714,55.8767857 59.9116071,56.1625 L60.6223214,56.7508929 L61.1875,56.0205357 C62.7544643,53.9928571 64.0392857,51.7696429 65.0080357,49.4107143 L65.3651786,48.5392857 L64.4776786,48.2276786 C63.4017857,47.8517857 62.6785714,46.8410714 62.6785714,45.7133929 C62.6785714,44.2366071 63.8803571,43.0348214 65.3571429,43.0348214 C65.5008929,43.0348214 65.6589286,43.0517857 65.8401786,43.0857143 L66.7660714,43.2580357 L66.8892857,42.3241071 C67.0571429,41.0464286 67.1428571,39.7839286 67.1428571,38.5705357 C67.1428571,37.3571429 67.0571429,36.0946429 66.8892857,34.8169643 Z M65.2178571,41.2508929 C62.8196429,41.3258929 60.8928571,43.2982143 60.8928571,45.7133929 C60.8928571,47.2767857 61.7214286,48.7053571 63.0258929,49.5044643 C62.2758929,51.1776786 61.3535714,52.7723214 60.2723214,54.2633929 C59.6375,53.925 58.9401786,53.7491071 58.2142857,53.7491071 C55.7526786,53.7491071 53.75,55.7517857 53.75,58.2133929 C53.75,58.9392857 53.9258929,59.6366071 54.2642857,60.2714286 C52.7732143,61.3526786 51.1794643,62.275 49.5053571,63.025 C48.7053571,61.7205357 47.2785714,60.8919643 45.7142857,60.8919643 C43.2991071,60.8919643 41.3267857,62.81875 41.2517857,65.2160714 C39.4285714,65.4026786 37.7151786,65.4026786 35.8910714,65.2160714 C35.8169643,62.81875 33.84375,60.8919643 31.4285714,60.8919643 C29.8651786,60.8919643 28.4366071,61.7205357 27.6375,63.025 C25.9633929,62.275 24.36875,61.3526786 22.8785714,60.2714286 C23.2169643,59.6366071 23.3928571,58.9392857 23.3928571,58.2133929 C23.3928571,55.7517857 21.3901786,53.7491071 18.9285714,53.7491071 C18.2035714,53.7491071 17.5053571,53.925 16.8705357,54.2633929 C15.7901786,52.7723214 14.8678571,51.1776786 14.1178571,49.5044643 C15.4223214,48.7053571 16.25,47.2767857 16.25,45.7133929 C16.25,43.2982143 14.3232143,41.3258929 11.9258929,41.2508929 C11.8330357,40.3383929 11.7857143,39.4410714 11.7857143,38.5705357 C11.7857143,37.7 11.8330357,36.8026786 11.9258929,35.8901786 C14.3232143,35.8151786 16.25,33.8428571 16.25,31.4276786 C16.25,29.8642857 15.4223214,28.4357143 14.1178571,27.6366071 C14.8678571,25.9633929 15.7901786,24.36875 16.8705357,22.8776786 C17.5053571,23.2160714 18.2035714,23.3919643 18.9285714,23.3919643 C21.3901786,23.3919643 23.3928571,21.3892857 23.3928571,18.9276786 C23.3928571,18.2017857 23.2169643,17.5044643 22.8785714,16.8696429 C24.36875,15.7883929 25.9642857,14.8660714 27.6375,14.1160714 C28.4366071,15.4205357 29.8651786,16.2491071 31.4285714,16.2491071 C33.84375,16.2491071 35.8169643,14.3223214 35.8910714,11.925 C37.7151786,11.7383929 39.4285714,11.7383929 41.2517857,11.925 C41.3267857,14.3223214 43.2991071,16.2491071 45.7142857,16.2491071 C47.2785714,16.2491071 48.70625,15.4205357 49.5053571,14.1160714 C51.1794643,14.8660714 52.7732143,15.7883929 54.2642857,16.8696429 C53.9258929,17.5044643 53.75,18.2026786 53.75,18.9276786 C53.75,21.3892857 55.7526786,23.3919643 58.2142857,23.3919643 C58.9401786,23.3919643 59.6375,23.2160714 60.2723214,22.8776786 C61.3535714,24.36875 62.2758929,25.9633929 63.0258929,27.6366071 C61.7214286,28.4357143 60.8928571,29.8642857 60.8928571,31.4276786 C60.8928571,33.8428571 62.8196429,35.8151786 65.2178571,35.8901786 C65.3098214,36.8026786 65.3571429,37.7 65.3571429,38.5705357 C65.3571429,39.4410714 65.3098214,40.3383929 65.2178571,41.2508929 Z"/>
      <rect width="1.786" height="1.786" x="26.071" y="17.142" fill="#FFF" fill-rule="nonzero"/>
      <rect width="1.786" height="1.786" x="26.071" y="57.321" fill="#FFF" fill-rule="nonzero"/>
      <rect width="1.786" height="1.786" x="37.679" y="14.463" fill="#FFF" fill-rule="nonzero"/>
      <rect width="1.786" height="1.786" x="37.679" y="60.892" fill="#FFF" fill-rule="nonzero"/>
      <rect width="1.786" height="1.786" x="49.286" y="17.142" fill="#FFF" fill-rule="nonzero"/>
      <rect width="1.786" height="1.786" x="49.286" y="57.321" fill="#FFF" fill-rule="nonzero"/>
      <rect width="1.786" height="1.786" x="57.321" y="26.071" fill="#FFF" fill-rule="nonzero"/>
      <rect width="1.786" height="1.786" x="57.321" y="49.285" fill="#FFF" fill-rule="nonzero"/>
      <rect width="1.786" height="1.786" x="18.036" y="26.071" fill="#FFF" fill-rule="nonzero"/>
      <rect width="1.786" height="1.786" x="18.036" y="49.285" fill="#FFF" fill-rule="nonzero"/>
      <rect width="1.786" height="1.786" x="60.893" y="37.678" fill="#FFF" fill-rule="nonzero"/>
      <rect width="1.786" height="1.786" x="14.464" y="37.678" fill="#FFF" fill-rule="nonzero"/>
      <circle cx="38.571" cy="38.571" r="38.571" stroke="#FFF" stroke-width="3"/>
    </g>
  </g>
</svg>
