<?xml version="1.0" encoding="UTF-8"?>
<svg xmlns="http://www.w3.org/2000/svg" width="205" height="205" viewBox="0 0 205 205">
  <g fill="none" fill-rule="evenodd" transform="translate(1 5)">
    <g fill="#2C2C2C" fill-rule="nonzero" transform="translate(67 69)">
      <path d="M26.25,41.5625 L24.0625,41.5625 L24.0625,37.1875 L26.25,37.1875 L26.25,35 L24.0625,35 L24.0625,8.75 L25.15625,8.75 L25.15625,0 L20.78125,0 L20.78125,8.75 L21.875,8.75 L21.875,35 L19.6875,35 L19.6875,37.1875 L21.875,37.1875 L21.875,41.5625 L19.6875,41.5625 L19.6875,39.375 L17.5,39.375 L17.5,66.0625 L21.4375,70 L24.5,70 L28.4375,66.0625 L28.4375,39.375 L26.25,39.375 L26.25,41.5625 L26.25,41.5625 Z M23.625,67.8125 L22.3125,67.8125 L19.6875,65.1875 L19.6875,43.75 L21.875,43.75 L21.875,54.6875 L24.0625,54.6875 L24.0625,43.75 L26.25,43.75 L26.25,65.1875 L23.625,67.8125 Z"></path>
      <rect width="2.188" height="2.188" x="21.875" y="56.875"></rect>
      <rect width="2.188" height="2.188" x="21.875" y="61.25"></rect>
      <path d="M5.6875 28.4375L4.375 35.875 4.375 65.625 6.5625 65.625 6.5625 67.8125 4.375 67.8125 4.375 70 10.9375 70 10.9375 67.8125 8.75 67.8125 8.75 65.625 10.9375 65.625 10.9375 36.09375 9.625 28.4375 5.6875 28.4375zM7.875 30.625L8.640625 35 6.78125 35 7.546875 30.625 7.875 30.625zM6.5625 63.4375L6.5625 37.1875 8.75 37.1875 8.75 63.4375 6.5625 63.4375zM53.59375 27.34375L47.796875 8.75 41.78125 8.75 36.09375 27.015625 36.09375 27.34375C36.09375 28.875 36.53125 30.296875 37.1875 31.5 36.421875 33.03125 32.8125 40.90625 32.8125 48.125L32.8125 70 35 70 35 48.125C35 42.546875 37.515625 36.203125 38.609375 33.46875 39.703125 34.5625 41.125 35.4375 42.765625 35.765625 40.796875 38.5 37.1875 44.40625 37.1875 50.3125L37.1875 70 39.375 70 39.375 50.3125C39.375 44.734375 43.09375 39.046875 44.84375 36.75 46.59375 39.046875 50.3125 44.734375 50.3125 50.3125L50.3125 70 52.5 70 52.5 50.3125C52.5 44.40625 48.890625 38.5 46.921875 35.875 48.5625 35.4375 49.984375 34.671875 51.078125 33.578125 52.171875 36.203125 54.6875 42.546875 54.6875 48.125L54.6875 70 56.875 70 56.875 48.125C56.875 41.015625 53.265625 33.140625 52.5 31.5 53.15625 30.296875 53.59375 28.875 53.59375 27.34375zM45.9375 10.9375L46.265625 10.9375 51.078125 26.25 45.9375 26.25 45.9375 10.9375zM44.84375 33.90625C41.234375 33.90625 38.390625 31.0625 38.28125 27.453125L43.421875 10.9375 43.75 10.9375 43.75 28.4375 51.296875 28.4375C50.75 31.5 48.125 33.90625 44.84375 33.90625z"></path>
      <polygon points="8.75 8.75 10.938 8.75 10.938 13.125 13.125 13.125 13.125 8.75 15.313 8.75 15.313 4.375 8.75 4.375"></polygon>
      <polygon points="2.188 13.125 4.375 13.125 4.375 8.75 6.563 8.75 6.563 4.375 0 4.375 0 8.75 2.188 8.75"></polygon>
      <polygon points="8.75 19.688 10.938 19.688 10.938 24.063 13.125 24.063 13.125 19.688 15.313 19.688 15.313 15.313 8.75 15.313"></polygon>
      <polygon points="4.375 24.063 4.375 19.688 6.563 19.688 6.563 15.313 0 15.313 0 19.688 2.188 19.688 2.188 24.063"></polygon>
      <polygon points="67.813 8.75 54.688 8.75 54.688 10.938 67.813 10.938 67.813 13.125 63.438 13.125 63.438 15.313 67.813 15.313 67.813 70 70 70 70 4.375 67.813 4.375"></polygon>
      <rect width="2.188" height="2.188" x="67.813"></rect>
      <rect width="2.188" height="2.188" x="63.438" y="56.875"></rect>
      <rect width="2.188" height="2.188" x="63.438" y="45.938"></rect>
      <rect width="2.188" height="2.188" x="63.438" y="35"></rect>
      <rect width="2.188" height="2.188" x="63.438" y="24.063"></rect>
    </g>
    <path fill="#C00127" d="M157.015909,17.3307254 C204.059288,47.8810529 217.410176,110.813011 186.835952,157.893187 C175.750929,174.962626 160.41384,187.604799 143.123051,195.330236 L124.318034,166.406495 C137.868347,161.595259 150.003819,152.449265 158.442761,139.454433 C178.825577,108.067649 169.924986,66.1130105 138.562733,45.7461255 C107.20048,25.3792405 65.252814,34.312634 44.8699979,65.6994183 C24.4871819,97.0862026 33.3877738,139.040841 64.7500265,159.407726 C69.0683196,162.212058 73.5872989,164.460894 78.223038,166.172106 L59.4440237,195.054646 C54.9551293,193.000104 50.5607682,190.592147 46.2968498,187.823126 C-0.746529084,157.272799 -14.097417,94.340841 16.4768071,47.2606646 C47.0510312,0.180488118 109.972531,-13.2196021 157.015909,17.3307254 Z"></path>
  </g>
</svg>
